<svg width="48" height="48" viewBox="0 0 48 48" fill="none" xmlns="http://www.w3.org/2000/svg">
<g id="icon">
<rect x="0.5" y="0.5" width="47" height="47" rx="3.5" fill="#121214"/>
<rect x="0.5" y="0.5" width="47" height="47" rx="3.5" fill="url(#paint0_linear_801_468)"/>
<g id="Emoji">
<path id="Vector" d="M35.0399 16.4391L33.1152 18.3646C33.1152 18.3646 31.8313 19.0062 30.5481 17.7223C29.2643 16.4391 29.9059 15.1553 29.9059 15.1553L31.8313 13.2298C32.4736 12.5882 31.7021 12 31.123 12C28.2794 12 25.9749 14.3045 25.9749 17.1474C25.9749 17.5468 26.0255 17.9343 26.1111 18.3077L21.7597 22.6591L25.6099 26.5093L29.9613 22.1586C30.3355 22.2442 30.7222 22.2948 31.1223 22.2948C33.9652 22.2948 36.2697 19.9903 36.2697 17.1474C36.2704 16.5648 35.6815 15.7975 35.0399 16.4391ZM21.6839 22.7847L13.1279 31.3401C12.0785 32.3902 12.0785 34.0924 13.1279 35.1425C14.1787 36.192 15.8802 36.192 16.9303 35.1425L25.485 26.5872L21.6839 22.7847ZM15.0456 34.3486C14.4707 34.3486 14.0053 33.8825 14.0053 33.3084C14.0053 32.7342 14.4714 32.2674 15.0456 32.2674C15.6205 32.2674 16.0859 32.7335 16.0859 33.3084C16.0859 33.8825 15.6205 34.3486 15.0456 34.3486Z" fill="#8899A6"/>
<path id="Vector_2" d="M32.6413 35.3601C33.4598 36.1786 34.7626 36.2172 35.5341 35.445C36.3062 34.6729 36.2676 33.3708 35.4491 32.5523L19.1183 16.2215C18.2991 15.4023 16.9977 15.3644 16.2256 16.1365C15.4534 16.9087 15.492 18.2108 16.3105 19.0293L32.6413 35.3601Z" fill="#F4900C"/>
<path id="Vector_3" d="M26.0529 12.627C26.0529 12.627 21.8412 10.5211 18.3315 14.0309L13.4178 18.9445C13.4178 18.9445 12.7159 18.2425 12.0139 18.9445L11.312 19.6464C11.312 19.6464 10.61 20.3484 11.312 21.0503L14.1198 23.8581C14.1198 23.8581 14.8217 24.5601 15.5237 23.8581L16.2256 23.1562C16.2256 23.1562 16.9276 22.4542 16.2256 21.7523L16.1709 21.6975C16.7114 21.176 17.5207 20.6446 18.3315 21.0503L21.1393 18.2425C21.1393 18.2425 20.4373 16.1367 21.8412 14.7328C23.2451 13.3289 23.9471 13.3289 25.351 13.3289C26.7548 13.3289 26.0529 12.627 26.0529 12.627Z" fill="#66757F"/>
</g>
<rect x="0.5" y="0.5" width="47" height="47" rx="3.5" stroke="url(#paint1_linear_801_468)"/>
</g>
<defs>
<linearGradient id="paint0_linear_801_468" x1="24" y1="0" x2="24" y2="48" gradientUnits="userSpaceOnUse">
<stop stop-color="#202024"/>
<stop offset="1" stop-color="#202024" stop-opacity="0.2"/>
</linearGradient>
<linearGradient id="paint1_linear_801_468" x1="24" y1="0" x2="24" y2="48" gradientUnits="userSpaceOnUse">
<stop stop-color="#323238"/>
<stop offset="1" stop-color="#323238" stop-opacity="0.3"/>
</linearGradient>
</defs>
</svg>
