<svg width="48" height="48" viewBox="0 0 48 48" fill="none" xmlns="http://www.w3.org/2000/svg">
<g id="icon">
<rect x="0.5" y="0.5" width="47" height="47" rx="3.5" fill="#121214"/>
<rect x="0.5" y="0.5" width="47" height="47" rx="3.5" fill="url(#paint0_linear_801_479)"/>
<g id="Emoji">
<path id="Vector" d="M34.1606 33.1926C34.1606 34.7366 32.8973 36 31.3533 36H15.9128C14.3688 36 13.1055 34.7366 13.1055 33.1926V21.2613C13.1055 19.7173 14.3688 18.454 15.9128 18.454H31.3533C32.8973 18.454 34.1606 19.7173 34.1606 21.2613V33.1926Z" fill="#FDD888"/>
<path id="Vector_2" d="M36.2662 19.1558C36.2662 20.6999 35.0029 21.9632 33.4589 21.9632H13.8074C12.2633 21.9632 11 20.6999 11 19.1558C11 17.6118 12.2633 16.3484 13.8074 16.3484H33.4589C35.0029 16.3484 36.2662 17.6118 36.2662 19.1558Z" fill="#FDD888"/>
<path id="Vector_3" d="M13.1055 21.9632H34.1606V23.3669H13.1055V21.9632Z" fill="#FCAB40"/>
<path id="Vector_4" d="M24.335 13.5411H22.9313C21.7684 13.5411 20.8258 14.4836 20.8258 15.6466V35.9999H26.4405V15.6466C26.4405 14.4843 25.4979 13.5411 24.335 13.5411Z" fill="#DA2F47"/>
<path id="Vector_5" d="M22.2294 16.3485C23.0014 16.3485 23.1158 15.9864 22.4828 15.5435L17.765 12.2406C17.132 11.7978 16.3017 11.9838 15.9185 12.654L14.5036 15.1301C14.1204 15.8004 14.439 16.3485 15.211 16.3485H22.2294ZM25.0368 16.3485C24.2647 16.3485 24.1503 15.9864 24.7834 15.5435L29.5019 12.2406C30.1342 11.7978 30.9652 11.9838 31.3484 12.654L32.7633 15.1294C33.1458 15.8004 32.8272 16.3485 32.0552 16.3485H25.0368Z" fill="#DA2F47"/>
</g>
<rect x="0.5" y="0.5" width="47" height="47" rx="3.5" stroke="url(#paint1_linear_801_479)"/>
</g>
<defs>
<linearGradient id="paint0_linear_801_479" x1="24" y1="0" x2="24" y2="48" gradientUnits="userSpaceOnUse">
<stop stop-color="#202024"/>
<stop offset="1" stop-color="#202024" stop-opacity="0.2"/>
</linearGradient>
<linearGradient id="paint1_linear_801_479" x1="24" y1="0" x2="24" y2="48" gradientUnits="userSpaceOnUse">
<stop stop-color="#323238"/>
<stop offset="1" stop-color="#323238" stop-opacity="0.3"/>
</linearGradient>
</defs>
</svg>
